<?xml version="1.0" standalone="no"?>
<!DOCTYPE svg PUBLIC "-//W3C//DTD SVG 20010904//EN"
 "http://www.w3.org/TR/2001/REC-SVG-20010904/DTD/svg10.dtd">
<svg version="1.0" xmlns="http://www.w3.org/2000/svg"
 width="1920.000000pt" height="1920.000000pt" viewBox="0 0 1920.000000 1920.000000"
 preserveAspectRatio="xMidYMid meet">
<metadata>
Created by potrace 1.14, written by Peter Selinger 2001-2017
</metadata>
<g transform="translate(0.000000,1920.000000) scale(0.100000,-0.100000)"
fill="#000000" stroke="none">
<path d="M11255 14412 c-3 -4 -50 -8 -103 -9 -53 -1 -140 -5 -192 -7 -52 -3
-128 -6 -167 -7 -40 -1 -73 -4 -73 -8 0 -3 -30 -6 -67 -5 -38 0 -108 -3 -158
-8 -49 -5 -102 -8 -117 -8 -96 1 -790 -71 -1058 -110 -137 -20 -205 -29 -250
-35 -14 -2 -25 -4 -25 -5 0 -1 -13 -4 -30 -7 -57 -8 -70 -10 -70 -13 0 -2 -52
-9 -82 -12 -7 -1 -13 -4 -13 -7 0 -3 -10 -7 -23 -8 -21 -2 -56 -9 -67 -13 -3
-1 -8 -2 -11 -2 -22 3 -397 -138 -454 -170 -11 -6 -44 -13 -74 -14 -30 -1 -57
-7 -60 -12 -3 -5 -18 -12 -33 -15 -15 -4 -33 -13 -40 -20 -7 -6 -20 -13 -28
-15 -8 -2 -18 -9 -22 -15 -4 -7 -8 -9 -8 -4 0 8 -32 -11 -195 -117 -60 -39
-113 -70 -117 -69 -4 2 -8 -1 -8 -6 0 -4 -17 -20 -38 -33 -82 -55 -460 -357
-534 -427 -9 -9 -31 -27 -49 -41 -19 -14 -49 -40 -67 -57 -18 -18 -35 -33 -37
-33 -3 0 -20 -15 -39 -32 -19 -18 -51 -46 -71 -63 -20 -16 -51 -45 -69 -62
-18 -18 -37 -33 -40 -33 -4 0 -22 -16 -40 -35 -19 -19 -36 -35 -39 -35 -2 0
-22 -17 -44 -37 -67 -65 -205 -188 -214 -191 -5 -2 -26 -21 -47 -41 -20 -21
-109 -102 -197 -182 -88 -79 -268 -243 -399 -363 -132 -121 -247 -222 -255
-224 -9 -2 -22 -4 -28 -4 -7 -1 -13 -6 -13 -11 0 -5 -7 -7 -15 -3 -8 3 -15 1
-15 -4 0 -5 -9 -7 -20 -5 -11 2 -20 -1 -20 -6 0 -6 -5 -7 -11 -3 -6 3 -21 2
-32 -4 -12 -5 -42 -15 -67 -22 -43 -11 -549 -166 -580 -178 -8 -3 -18 -6 -22
-7 -5 -2 -10 -4 -13 -5 -3 -1 -9 -3 -14 -4 -5 0 -12 -4 -16 -8 -4 -4 -13 -4
-21 -1 -8 3 -14 1 -14 -4 0 -5 -6 -10 -12 -11 -23 -2 -43 -7 -55 -15 -7 -5
-13 -6 -13 -3 0 3 -60 -15 -132 -40 -146 -51 -435 -127 -448 -119 -5 3 -10 1
-12 -4 -1 -5 -16 -12 -33 -15 -41 -7 -73 -14 -95 -21 -10 -3 -29 -8 -42 -11
-39 -9 -53 -12 -53 -14 0 -1 -11 -4 -25 -6 -34 -6 -342 -92 -515 -145 -77 -23
-146 -42 -152 -42 -7 0 -13 -4 -13 -9 0 -6 -6 -8 -12 -5 -7 2 -21 0 -31 -5
-10 -5 -31 -12 -45 -14 -15 -3 -31 -9 -38 -15 -6 -5 -14 -6 -17 -3 -3 3 -12 2
-19 -2 -7 -5 -19 -9 -26 -10 -8 -2 -21 -6 -30 -10 -9 -4 -23 -8 -31 -10 -8 -1
-99 -33 -204 -69 -104 -37 -194 -68 -201 -69 -6 -1 -21 -8 -34 -14 -12 -7 -22
-10 -22 -7 0 3 -11 -2 -25 -11 -14 -9 -25 -13 -25 -9 0 4 -7 2 -15 -5 -9 -7
-23 -14 -33 -15 -9 -1 -30 -7 -47 -15 -16 -7 -38 -15 -47 -16 -18 -4 -389
-158 -421 -175 -9 -5 -42 -19 -72 -30 -30 -11 -55 -25 -55 -30 0 -6 -4 -8 -9
-4 -9 5 -327 -153 -358 -178 -7 -5 -13 -6 -13 -2 0 5 -9 0 -20 -10 -11 -10
-20 -15 -20 -10 0 4 -6 3 -12 -3 -7 -5 -44 -27 -83 -47 -38 -21 -84 -49 -101
-62 -17 -13 -36 -23 -42 -23 -6 0 -12 -3 -14 -7 -4 -10 -118 -85 -118 -78 0 3
-8 -2 -17 -11 -10 -8 -49 -38 -88 -66 -143 -104 -205 -167 -220 -220 -2 -5 -3
-9 -5 -10 -1 -2 -3 -10 -5 -19 -1 -10 -10 -50 -19 -90 -22 -93 -54 -324 -62
-445 -5 -65 -11 -94 -19 -91 -14 6 -87 -47 -78 -57 3 -3 2 -6 -4 -6 -11 0 -37
-57 -34 -72 0 -5 -4 -8 -10 -8 -5 0 -7 -4 -4 -10 13 -22 -15 -47 -58 -52 -74
-9 -129 -60 -156 -146 -9 -28 -8 -386 0 -398 5 -5 6 -23 3 -38 -2 -15 -1 -32
3 -39 7 -11 12 -48 14 -109 1 -16 4 -28 8 -28 3 0 7 -26 9 -58 1 -31 7 -58 12
-60 5 -2 7 -9 4 -16 -5 -14 22 -165 83 -466 19 -96 37 -184 39 -195 3 -15 -6
-26 -37 -45 -46 -28 -132 -118 -124 -130 3 -5 0 -10 -7 -12 -19 -7 -20 -115
-2 -122 9 -3 13 -9 11 -13 -2 -5 13 -25 34 -46 22 -21 39 -36 39 -32 0 3 11
-4 25 -17 42 -39 53 -47 59 -41 3 4 6 1 6 -5 0 -7 4 -12 9 -12 6 0 30 -13 54
-30 55 -37 297 -162 297 -153 0 3 8 -1 18 -10 10 -10 22 -14 25 -10 4 3 7 1 7
-6 0 -7 4 -10 8 -7 5 3 36 -8 69 -23 33 -16 133 -58 224 -94 215 -85 202 -81
219 -78 12 2 13 0 2 -10 -7 -8 -27 -14 -45 -16 -17 -1 -45 -4 -62 -8 -16 -3
-46 -8 -65 -11 -19 -3 -42 -8 -50 -11 -8 -3 -33 -8 -55 -10 -22 -1 -42 -8 -43
-13 -2 -6 -8 -8 -13 -4 -24 15 -324 -108 -439 -179 -37 -23 -114 -97 -102 -97
4 0 0 -6 -8 -13 -18 -14 -21 -25 -30 -95 -3 -29 -3 -55 1 -58 4 -2 10 -18 14
-34 4 -17 11 -30 16 -30 5 0 9 -5 9 -11 0 -21 170 -172 170 -152 0 4 5 0 11
-10 6 -9 14 -15 19 -12 5 3 12 0 16 -6 9 -15 324 -169 346 -169 9 0 20 -5 23
-10 4 -6 11 -8 16 -5 5 4 9 1 9 -5 0 -6 4 -9 9 -5 5 3 12 1 16 -5 4 -6 11 -8
16 -5 5 4 9 2 9 -3 0 -5 6 -9 13 -9 6 0 84 -28 172 -62 222 -87 375 -141 375
-134 0 3 6 1 13 -4 13 -11 67 -27 80 -25 4 1 7 -2 7 -6 0 -5 6 -9 13 -9 6 0
102 -30 212 -66 243 -80 445 -138 455 -132 5 3 10 0 12 -6 2 -6 18 -12 36 -12
18 -1 32 -5 32 -9 0 -4 9 -5 20 -3 11 2 20 0 20 -5 0 -5 6 -7 14 -4 8 3 17 1
20 -5 4 -6 13 -8 20 -5 8 3 17 1 20 -5 4 -6 13 -8 21 -4 8 3 15 0 15 -7 0 -6
5 -8 10 -5 6 3 47 -3 93 -14 259 -64 650 -137 784 -146 23 -2 45 -5 50 -8 5
-3 21 -4 36 -3 15 2 27 0 27 -4 0 -3 17 -7 37 -8 58 -3 138 -10 138 -12 0 -1
20 -3 45 -4 25 -1 50 -4 55 -7 6 -3 33 -5 60 -3 28 1 54 -1 60 -4 10 -6 87
-11 253 -14 50 -1 92 -6 92 -10 0 -4 151 -8 335 -8 184 0 335 4 335 8 0 5 44
10 98 10 115 3 247 9 247 12 0 2 29 4 65 7 96 5 179 13 315 27 22 2 74 7 115
11 41 3 82 9 90 12 8 3 33 7 55 8 54 4 295 41 430 66 137 25 410 76 450 85 17
3 42 7 58 7 15 1 27 4 27 8 0 4 8 8 18 8 17 -1 75 8 80 12 1 1 10 2 20 3 9 1
23 5 30 9 6 5 16 5 22 2 5 -3 16 -3 22 1 13 8 41 14 71 15 9 0 17 5 17 10 0 6
4 8 9 5 9 -6 167 27 456 94 207 48 229 53 253 54 12 0 22 4 22 7 0 4 17 9 38
12 42 7 77 15 77 17 0 1 11 3 25 5 14 2 35 6 48 9 56 15 68 18 87 20 11 2 20
4 20 6 0 1 9 3 20 5 42 7 88 18 357 85 153 38 288 72 300 74 13 3 38 9 57 15
19 6 37 8 42 6 4 -3 11 0 14 6 4 5 13 8 21 5 8 -3 14 -2 14 3 0 7 14 11 52 12
10 0 20 4 23 9 3 5 12 7 19 4 8 -3 17 -1 20 5 4 6 13 8 20 5 8 -3 17 0 21 5 3
6 10 9 14 6 5 -2 23 0 42 6 19 6 45 12 59 15 14 3 39 9 55 14 52 16 419 113
435 114 9 1 20 5 25 8 9 5 118 30 130 29 2 0 20 6 39 14 18 8 36 11 39 8 4 -3
13 0 22 7 8 7 15 9 15 5 0 -4 6 -2 13 4 8 6 16 9 18 6 3 -2 27 3 54 11 28 9
60 17 72 20 12 2 111 29 220 60 109 30 223 62 253 71 30 8 62 16 70 17 9 1 21
6 28 10 7 4 16 5 19 2 3 -3 12 -1 20 5 7 6 13 8 13 4 0 -4 6 -2 14 4 8 6 18
11 22 10 5 -1 12 0 17 1 8 3 11 4 57 14 19 5 40 11 45 14 6 4 19 8 30 10 27 4
221 58 435 123 96 28 185 52 198 53 12 1 22 4 22 9 0 4 3 6 8 6 4 -1 9 0 12 1
3 1 18 4 35 6 16 3 35 10 42 16 7 5 16 7 21 4 5 -3 20 1 35 9 14 7 28 11 31 8
2 -3 11 -1 18 3 7 5 18 9 23 10 19 3 119 32 275 79 249 76 278 84 284 77 3 -3
6 0 6 7 0 7 6 11 14 8 7 -3 19 0 25 6 6 6 11 7 11 3 0 -5 7 -3 15 4 9 7 18 10
22 7 3 -4 11 -2 18 3 6 5 29 12 51 16 21 3 41 9 44 13 3 3 16 8 30 9 14 2 27
8 28 13 2 5 7 7 11 5 4 -3 72 15 152 40 79 25 185 58 236 73 51 16 94 26 97
23 4 -3 6 0 6 7 0 6 6 11 13 10 6 -1 19 1 27 4 8 4 26 9 40 11 14 3 27 5 30 6
3 2 8 2 13 1 4 0 7 3 7 9 0 5 7 7 15 4 8 -4 15 -1 15 4 0 6 9 9 20 7 11 -2 20
1 20 7 0 6 3 9 6 5 3 -3 25 1 47 10 23 8 51 16 62 19 11 2 130 40 264 84 134
43 248 77 253 74 4 -3 8 0 8 6 0 6 4 9 9 5 5 -3 13 0 16 6 4 5 13 8 21 5 8 -3
14 -1 14 4 0 6 3 9 8 9 4 -1 9 0 12 1 3 1 13 3 23 5 10 2 26 7 35 11 9 4 25 9
35 11 10 2 130 41 267 87 137 46 251 81 255 78 3 -4 9 -1 13 6 5 6 17 13 27
15 11 1 26 6 33 10 6 5 17 5 22 2 6 -3 10 -1 10 4 0 6 3 10 8 10 4 -1 9 0 12
1 3 1 13 3 23 5 10 2 26 7 35 11 9 4 25 9 34 10 10 2 107 36 215 74 109 39
205 72 213 74 8 1 33 10 54 20 22 9 50 17 63 18 13 2 23 6 23 11 0 4 4 6 9 2
5 -3 13 0 16 6 4 5 13 8 21 5 8 -3 14 0 14 6 0 6 3 8 7 5 3 -4 17 0 30 8 13 9
23 13 23 10 0 -2 51 14 113 36 61 22 180 64 262 94 194 69 239 85 260 91 24 6
267 95 338 124 43 17 82 28 87 25 6 -3 10 -2 10 3 0 8 102 51 134 56 6 1 21 7
32 14 12 6 24 8 28 5 3 -3 6 -1 6 6 0 6 6 11 13 10 6 -1 21 1 32 6 67 27 432
166 440 168 6 2 20 9 33 15 12 7 22 10 22 7 0 -3 11 2 25 11 14 9 25 13 25 9
0 -4 7 -2 15 5 8 7 15 9 15 4 0 -4 5 -3 12 4 7 7 20 12 30 12 10 0 18 5 18 11
0 5 3 8 8 5 4 -2 23 3 42 11 19 9 40 17 45 18 6 2 31 12 55 23 49 22 249 103
265 107 6 1 28 10 50 20 22 9 45 18 51 19 7 1 18 7 26 14 8 6 18 9 21 5 4 -3
7 -1 7 6 0 7 4 10 10 6 5 -3 17 -1 27 4 10 6 68 31 128 57 114 47 155 65 240
104 28 13 56 23 63 23 6 0 12 4 12 9 0 4 3 7 8 6 4 -1 21 5 37 12 17 7 34 12
39 11 5 -1 12 2 15 6 3 5 41 23 83 41 176 73 318 153 318 180 0 6 4 12 9 12 9
0 55 87 56 107 0 6 4 15 8 19 11 11 8 172 -3 179 -6 4 -8 10 -6 14 10 15 -47
107 -93 150 -25 24 -66 52 -91 63 -39 17 -538 111 -651 122 -24 2 -51 7 -59
10 -17 6 -111 18 -155 20 -39 1 -45 10 -45 77 l0 55 106 67 c58 37 109 67 114
67 16 0 120 108 120 124 0 9 4 16 8 16 8 0 55 100 67 143 2 4 3 8 5 10 1 1 3
9 5 17 2 8 17 64 34 125 46 161 119 574 122 684 0 15 2 49 5 76 15 159 14 240
-4 265 -21 30 -27 32 -122 39 -41 4 -70 9 -64 13 6 4 10 40 9 88 -1 45 1 83 4
85 11 6 0 517 -14 655 -3 30 -7 73 -9 95 -2 22 -5 42 -6 45 -1 3 -1 15 0 28 1
12 -3 22 -9 22 -5 0 -8 9 -6 20 10 50 -98 330 -147 384 -10 11 -18 25 -18 30
0 6 -9 17 -20 24 -12 7 -18 17 -15 22 3 6 3 10 -2 10 -4 0 -23 13 -42 29 -54
46 -88 50 -571 57 -358 5 -379 6 -390 23 -4 7 -11 12 -15 11 -7 -3 -148 110
-228 182 -26 24 -66 59 -89 78 -23 19 -50 43 -60 53 -10 9 -21 17 -26 17 -4 0
-14 8 -23 18 -8 9 -30 28 -48 42 -18 14 -39 31 -46 38 -8 6 -16 12 -19 12 -4
0 -19 13 -35 28 -17 15 -42 34 -58 42 -15 8 -34 21 -43 29 -50 44 -383 261
-534 348 -31 17 -85 42 -93 42 -3 -1 -9 3 -12 8 -12 16 -408 199 -449 207 -10
1 -30 8 -45 14 -15 7 -31 11 -35 11 -4 -1 -9 0 -12 1 -10 3 -45 11 -57 12 -7
1 -13 4 -13 8 0 7 -8 8 -55 11 -14 1 -25 5 -25 10 0 4 -9 6 -20 4 -11 -2 -22
0 -25 5 -3 5 -12 7 -19 4 -8 -3 -17 0 -21 5 -3 6 -10 9 -14 7 -4 -3 -68 6
-142 19 -143 26 -371 58 -534 75 -153 16 -416 39 -424 38 -3 -1 -35 1 -71 6
-36 4 -118 9 -182 11 -65 2 -122 6 -126 9 -5 3 -44 5 -88 5 -43 -1 -81 0 -84
1 -3 1 -48 3 -100 4 -52 1 -99 4 -105 7 -5 4 -63 6 -127 5 -65 -1 -118 2 -118
5 0 8 -1767 9 -1775 1z m6330 -3382 c4 -6 10 -8 15 -5 12 7 110 -34 110 -46 0
-5 5 -9 11 -9 11 0 103 -92 142 -142 30 -38 98 -178 92 -188 -4 -6 -2 -10 3
-10 8 0 24 -51 27 -85 0 -5 3 -14 6 -20 4 -5 5 -18 4 -27 -2 -10 1 -18 6 -18
5 0 7 -11 5 -25 -3 -14 -1 -25 4 -25 5 0 7 -13 5 -30 -2 -16 -1 -30 3 -30 4 0
8 -15 8 -33 1 -17 4 -42 7 -54 3 -13 2 -23 -2 -23 -5 0 -12 17 -17 38 -9 42
-10 50 -14 57 -1 3 -4 10 -5 15 -1 6 -4 13 -5 18 -1 4 -2 10 -1 15 0 4 -3 7
-9 7 -5 0 -7 7 -4 15 4 8 1 15 -6 15 -6 0 -9 4 -5 10 7 11 -41 116 -98 215
-67 117 -131 196 -232 288 -67 61 -90 87 -76 87 11 0 23 -5 26 -10z"/>
</g>
</svg>
